<?xml version="1.0" standalone="no"?><!DOCTYPE svg PUBLIC "-//W3C//DTD SVG 1.1//EN" "http://www.w3.org/Graphics/SVG/1.1/DTD/svg11.dtd"><svg t="1657346292154" class="icon" viewBox="0 0 1024 1024" version="1.1" xmlns="http://www.w3.org/2000/svg" p-id="9286" xmlns:xlink="http://www.w3.org/1999/xlink" width="200" height="200"><defs><style type="text/css">@font-face { font-family: feedback-iconfont; src: url("//at.alicdn.com/t/font_1031158_u69w8yhxdu.woff2?t=1630033759944") format("woff2"), url("//at.alicdn.com/t/font_1031158_u69w8yhxdu.woff?t=1630033759944") format("woff"), url("//at.alicdn.com/t/font_1031158_u69w8yhxdu.ttf?t=1630033759944") format("truetype"); }
</style></defs><path d="M512 64a448 448 0 1 1 0 896A448 448 0 0 1 512 64z m0 89.6a358.4 358.4 0 1 0 0 716.8A358.4 358.4 0 0 0 512 153.6z m59.712 266.24l-44.032 232.384c-1.088 5.76-2.048 11.648-2.88 17.536a83.008 83.008 0 0 0-0.896 11.072c0 12.288 2.88 21.76 8.768 28.032 5.76 6.4 14.144 9.6 25.216 9.6 4.864 0 11.328-0.768 19.456-2.368 8.128-1.536 17.344-4.032 27.84-7.424v28.16c-20.544 8.576-41.792 15.36-63.424 20.48a250.88 250.88 0 0 1-54.08 6.4c-16.768 0-29.44-4.608-38.144-13.632-8.64-9.152-12.928-22.336-12.928-39.808 0-4.48 0.448-10.048 1.28-16.64 0.896-6.592 2.56-16.64 4.992-29.76l36.992-185.088-56.448-8.704v-24.192L541.44 419.84h30.208zM541.44 277.376a48 48 0 1 1 0 96 48 48 0 0 1 0-96z" fill="#e0e0f0" p-id="9287"></path></svg>