<?xml version="1.0" standalone="no"?><!DOCTYPE svg PUBLIC "-//W3C//DTD SVG 1.1//EN" "http://www.w3.org/Graphics/SVG/1.1/DTD/svg11.dtd"><svg t="1657344919775" class="icon" viewBox="0 0 1024 1024" version="1.1" xmlns="http://www.w3.org/2000/svg" p-id="11087" xmlns:xlink="http://www.w3.org/1999/xlink" width="200" height="200"><defs><style type="text/css">@font-face { font-family: feedback-iconfont; src: url("//at.alicdn.com/t/font_1031158_u69w8yhxdu.woff2?t=1630033759944") format("woff2"), url("//at.alicdn.com/t/font_1031158_u69w8yhxdu.woff?t=1630033759944") format("woff"), url("//at.alicdn.com/t/font_1031158_u69w8yhxdu.ttf?t=1630033759944") format("truetype"); }
</style></defs><path d="M892.928 128q28.672 0 48.64 19.968t19.968 48.64l0 52.224q0 28.672-19.968 48.64t-48.64 19.968l-759.808 0q-28.672 0-48.64-19.968t-19.968-48.64l0-52.224q0-28.672 19.968-48.64t48.64-19.968l759.808 0zM892.928 448.512q28.672 0 48.64 19.968t19.968 48.64l0 52.224q0 28.672-19.968 48.64t-48.64 19.968l-759.808 0q-28.672 0-48.64-19.968t-19.968-48.64l0-52.224q0-28.672 19.968-48.64t48.64-19.968l759.808 0zM892.928 769.024q28.672 0 48.64 19.968t19.968 48.64l0 52.224q0 28.672-19.968 48.64t-48.64 19.968l-759.808 0q-28.672 0-48.64-19.968t-19.968-48.64l0-52.224q0-28.672 19.968-48.64t48.64-19.968l759.808 0z" p-id="11088" fill="#e0e0f0"></path></svg>